<mxfile host="Electron" modified="2023-06-08T02:14:51.603Z" agent="Mozilla/5.0 (X11; Linux x86_64) AppleWebKit/537.36 (KHTML, like Gecko) draw.io/21.2.8 Chrome/112.0.5615.165 Electron/24.2.0 Safari/537.36" etag="erVAO_BVkil0G-C03PIr" version="21.2.8" type="device">
  <diagram name="Page-1" id="1HuF2gGViEUm2PjRH8PT">
    <mxGraphModel dx="1434" dy="875" grid="1" gridSize="10" guides="1" tooltips="1" connect="1" arrows="1" fold="1" page="1" pageScale="1" pageWidth="850" pageHeight="1100" math="0" shadow="0">
      <root>
        <mxCell id="0" />
        <mxCell id="1" parent="0" />
        <mxCell id="o6u1TMJKNHqgdZABAcJ1-8" value="" style="shape=image;imageAspect=0;aspect=fixed;verticalLabelPosition=bottom;verticalAlign=top;image=data:image/png,iVBORw0KGgoAAAANSUhEUgAAAFAAAABQCAYAAACOEfKtAAAACXBIWXMAAAsTAAALEwEAmpwYAAADpklEQVR4nO2YzU8TURTFazTqRlfGncadMXGtf4D+A5rGnXFnwBDiSkc+BA1RAyIhiCaWSOjMiIAGAth5w1fB0pSUNy20gIYWE42sdCFPoCrKNS8mEKclfM30MeWe5Gxf5vxy7nu3dblQKBQKhUKhclv5xQ+PFZTXa3nFtamrt2ogF51XXJsqKH+s55XUnLQc3rXbdd9kEl6Kzs5DgkFOOjo7D7IWXuJZeWbLAPLm8YNFB0xkyTxrQXn9G8sA8mrncvMSGZqYV1Sbsgwgvx9Eh0pk2TwzAmQIELCBTPw44ggzBAiiG4WPCEOAILpVuMYwBAhOMS7SDAECNpCJH0UcYYYAQXSb8BFhCBBENwrXGIYAwUnGRZohQMAGMvGjiCPMECCIbhM+IgwBguhG4RrDECA4ybhIMwQI2EAmfhRxhBkCBNFtwkeEIUAQ3ShcY5jDAe5Gu6yQt5uelTUKu9EqGT2zbYAqMdp8oanfwYkPsJvsC03+4dm3B6+THlE0mgrEksIDBbPsQGwGZGIsevWxo1sHqEdK24dii+bDO4ZGwV1YlFPmmcw524diKVmjpVuC19raulch9MtAZDrt4HueF8IDuy02z2TO6Y8mQNHoV7/fv2/TAJs042JLb4SlVzsJl2/cFR7YbbF5pkxXVUtfhMk+emHTAFWdhnvC79MObOoeEB7WbZN5NnNePfwOVELDm2tft3FKJcbCcIbLVXr0THhQt03m2cx5OQNVNxa8evj0hgEqhHq6hid/mQ/ro1Nw6XqJ8KBum8yz8Yzm3F3BiSWFGJ4NwWvoGD6kaMbC0Hj6fVDX3Ck8pNtm84zm3G/Hk3ylWZB9I4fXb59GC18PxuYz7Ub5d6qFB3TbbJ4xU3bOxKvRwnUBqsT42G+kry5WmoTiIFU1WGp9JG7rN3Mmim58AoA9a8Jr0sLnm3vSVxer/byj33KA/Ey7v/tlb2RO9hnn1m6fTnu1kalluz+k4mmz5QArnjTbDlALTS2rutGTuX299LhCjMVAfMZx4ytlaYyH4zOgELrYqEVPpAH0ElrdEYj/cOL4Slkc485A/KdCaPV/8Gp90wcUYswNRhPgxPGVsjjGg2NJ/vuYNfr9B1cAyj56pa1/zPbHI5gjftU/9p0zWwVIjIjof39l53l8BaBdIyXluBFgFQKEHdJAz6zocZAc5puVns+rACs9D0R/kOQ8318BWFbWuv8fRGyitC44zyxnxZmt+ZsYhUKhUCgUyrXj9ReCHLrt6oX5mQAAAABJRU5ErkJggg==;direction=east;" parent="1" vertex="1">
          <mxGeometry x="588" y="270" width="120" height="120" as="geometry" />
        </mxCell>
        <mxCell id="o6u1TMJKNHqgdZABAcJ1-9" value="" style="shape=image;imageAspect=0;aspect=fixed;verticalLabelPosition=bottom;verticalAlign=top;image=data:image/png,iVBORw0KGgoAAAANSUhEUgAAAGQAAABkCAYAAABw4pVUAAAACXBIWXMAAAsTAAALEwEAmpwYAAAGs0lEQVR4nO2deUwUZxiHxzZNr/RI/zPBndmL3Z1hgeVawAMQENTK6XKrq0jBC7mqllgwvaJtNa3RVqlSoCVYayu10SqCEjlWK3gmkHpXTbDogqjQBpC3mUVmHbalFCw7dN4n+f3B5M2wM89+3zcvO8wSBIIgCIIgCIIgCIIgCIIgyHiEohgXCcV8IJEy5STFHB7rSKT096SUWUdRWhUhZhQKxbOklCkgpUwfKWXA7qHoHlJKbyAIw9OECJlAUsy37ImQK5whLy8PDh78AY7VVIx59h/YC2vWvAVypbNFjISiPyPExiRKE8MePM14wOnT9dD3sN3uOW46ykkhScafEBMSKX2UPfDCL7+wu4i+x7Jx40ePpjD6G0JMkFK6iz3wjrs3//VJ6+0xQ8obSyAx0fi3yczMGpGQK1fOP5q2mF8JseDg4P08e9AqjW7E7+SGk7VDrgtnzphGtN8H91sGRsgDQixMnOj+AnvQatrN7lNU36B0Prg1IKSTEAvjQwjzkNZ61CsUzosIMQrp6TZDaurSIdeFJ5WcnFW835ufn28jROHoAlu3bgKF0rlTlELYE6FU6aB0X+V/nn3VP0NTS4clp6+2gqOG/zrY1+aodgVT3SGQKZy6CbEKYX82Xe0Y01Q3oxBBCTn2SyuoGS8cIf8kZPueSohISIZZ0UlcIhNToGR/Ha8mLDYFQiMWcAmPT7WpMSQlQ7hhHhfDPP5+ymvPo5ChhNRdbgfaWQ+Zm1dD3tfvcFm6PgM8JwdyNRqtN8RmbwXjulIu0cs/Bg+fGVyN1kUPe3athWNV67kU7XwTfKcEWWrqr9yFJTnrUMhQQqqbW0Gp1kHx+RJedjQUglKj42oUKjdYU3KOl5ydDaBQW/djaT67dvPSaS61bLeOkHM2Qii5U5+ff/A9ldqtiRD7GlI9xkJOXLtrI0RC0X9IZPR0mcz9FeL/zngQQoq9U39cSM2F26BQuULh2SKekG31BaBiPLgauaMOVhWd4QnJ2l4PjrQnV6NUuUL3/V08IW0txaBx6t9P3aV2SMu2XUNQyKCrrDmxRvAJDIagyHAuXn7TISk1k6uZbUgG9ymzYXJIAhc331BISMnmaqLiF0JwyAyIi4/kEhAUCMa0zCH7EBQySEjtJTMU/VgDBd9VcmEvVdkrpydZg0LGSadO4hpi2xgaYowQFp7AxRC3yLbpMyyCsLBELobYxTY1obHJEBCRxGVmvLUxRCHDGCF1l9vBSesJZUvioDJnAZcdyXPBxzvAWuOkh9KkTKhIyeVSELsUfPTW5lGp1cOLq3LhuXff5/LSymxw9ulvDFHIMC97VSpX6NqcxYt5Y4Zlu7VGB/fztvHSmrvFsn2gRqbWAVFWxsuE4hLLdhQyzMveahQirD6kGoUIS0gN29A5usC9TzN5U1bLhytAo3G31ihdof3tz3lT1s3Vn4BGY20epY6uQJSW8qasp3YWgpzur8E1ZJiXvZFz50OQ7zSICQzm4u89FYyL06010UYI0geCwW8OF3/PADAmZ3A1MwwLQT41GGShkVzkvoFgSMHGcNgjxISNobCmLBM2hiikDzt1HCGCAacsgYFCBAYKERgoRGCgEIGBQgQGChkHQn7vugWM1gs7daEIYXPx0jkUIiQhvb3Wu0XwJgcUAnjXCY4QYYBT1jj5p8+8/HxcQ4QiBD+gsiPYhwgM7EMEBq4hAgPXEIGBQgQGChEYKERgoBCBgUIEBgoRGChknPzphH2g8uvRxjHNrKh5oKI98d7ev/rE8FRjLfxUVTHmMTUcRyHCfwgmLe5nnYw0VUcOwIr0lZCRlQ2m+qMoxJ5Cysq+At8pgbBp0wbYsOE98PCaBocO7cMRYi8heh9/KC8vhVMNRywpKd4OM2eFoxB7COntMVueeXXCVMEJqazYCx5eU1GIvUZI0vyFsHZtrkVG48kqyMhIh5UjfAi/qBd1d3f3Z9hv1ZErXeBhb9uIT96N680QEhoGfv4hlrUkMioW7ty+Oioh7W3XB4S0EWKCpOgb7IE3NTWO6gT2dJuhubkRLl44a5nGRrMvNjW1hwee/d5IiAmSYrawB56WtmzUJ7HvCYWVGxOXOPAQzDxCTMjlzCQJxXSwB79seTqY71yzq4zW3y5b3hyPZNwiSZdXCbFBknQou3j2P/xeBxFRMWPy7QiDExY+F9j1bGDtIEknH0KsOMjUThKK2U9K6V57fmWehKK7SSmzWyLRyux9TgSBgwP9mkTO+EqkmqCxDkVp9AqF4mV7nwMEQRAEQRAEQRAEQRAEQRBiNPwJ6gp51iUssy8AAAAASUVORK5CYII=;rotation=-15;" parent="1" vertex="1">
          <mxGeometry x="652.07" y="287.75" width="100" height="100" as="geometry" />
        </mxCell>
        <mxCell id="o6u1TMJKNHqgdZABAcJ1-10" value="" style="shape=image;imageAspect=0;aspect=fixed;verticalLabelPosition=bottom;verticalAlign=top;image=data:image/svg+xml,PHN2ZyBoZWlnaHQ9IjIwMHB4IiB3aWR0aD0iMjAwcHgiIHZpZXdCb3g9IjAgMCAxMDAgMTAwIiB4bWxucz0iaHR0cDovL3d3dy53My5vcmcvMjAwMC9zdmciPjxwYXRoIGQ9Ik04OC43MDMsNTUuNjc0YzAuMy0wLjYxNiwwLjU2Ni0xLjI2NCwwLjc5Ni0xLjk0M2MyLjYzMy03Ljc3LTEuMzQ5LTE3LjA3OC05LjczMy0xOS4zMjVDNzguODYsMjMuMDIzLDcwLjg2LDE1LjIxNCw2MS44MjUsMTMuODgxYy0xMC4zNDEtMS41MjUtMTkuODE0LDUuMDQ0LTIyLjk2NiwxNS40ODVjLTMuNzk5LTEuMzQ2LTcuNTAxLTEuMTgyLTEwLjk5LDAuODU3Yy0xLjU4MywwLjczMi0zLjAzMSwxLjgxMi00LjMzLDMuMjMzYy0xLjkwNywyLjA4Ni0zLjE0Nyw0LjcxOS0zLjY1Miw3LjQ5NWMtMC43NDgsMC4xMTgtMS40ODMsMC4yMzYtMi4xNzYsMC40ODRjLTQuMDQsMS40NDktNi41ODksNC40MzEtNy4yODgsOC45MjNjLTAuNDM1LDIuNzk3LDAuNDQzLDUuNTg3LDAuOTMzLDYuNzE0YzEuOTM1LDQuNDU1LDYuNDIyLDYuOTgsMTAuOTgxLDYuMzEyYzAuMjI3LTAuMDMzLDAuNTU3LDAuMDY5LDAuNzUyLDAuMjMzYzAuMjQxLDcuMTIsMy42OTgsMTMuNDE3LDguODg0LDE3LjAxNGM4LjMyMSw1Ljc3MiwxOS4wMjcsMy45OTQsMjUuNzgxLTMuOTIxYzIuODk0LDIuOTYsNi4zMzgsNC4zOTgsMTAuMzg0LDMuODc2YzQuMDIzLTAuNTE5LDcuMTQ3LTIuNzM5LDkuNDI2LTYuMzQ5YzEuMDUzLDAuMjgzLDIuMDUxLDAuNjkxLDMuMDgzLDAuODA0YzQuMDQyLDAuNDQyLDcuMzI0LTEuMTY1LDkuNzMyLTQuOGMwLjkyMi0xLjM5MSwxLjc5My0zLjE5NCwxLjc5My02LjM1NEM5Mi4xNzMsNjAuNjMxLDkwLjg4LDU3LjY2NCw4OC43MDMsNTUuNjc0eiIgZmlsbD0iI2M3ZWRlNiIvPjxwYXRoIGQ9Ik0xOC4zNjkgNDcuNzExSDguMzM5Yy0uMjc2IDAtLjUtLjIyNC0uNS0uNXMuMjI0LS41LjUtLjVoMTAuMDNjLjI3NiAwIC41LjIyNC41LjVTMTguNjQ1IDQ3LjcxMSAxOC4zNjkgNDcuNzExek0yMS4yNSA0Ny43MTFoLTEuNDQ1Yy0uMjc2IDAtLjUtLjIyNC0uNS0uNXMuMjI0LS41LjUtLjVoMS40NDVjLjI3NiAwIC41LjIyNC41LjVTMjEuNTI2IDQ3LjcxMSAyMS4yNSA0Ny43MTF6TTI1LjMwNCA0Ny43MTFoLTIuNTQ2Yy0uMjc2IDAtLjUtLjIyNC0uNS0uNXMuMjI0LS41LjUtLjVoMi41NDZjLjI3NiAwIC41LjIyNC41LjVTMjUuNTgxIDQ3LjcxMSAyNS4zMDQgNDcuNzExek0yNS4zMDQgNDkuNTc1aC05LjYxNmMtLjI3NiAwLS41LS4yMjQtLjUtLjVzLjIyNC0uNS41LS41aDkuNjE2Yy4yNzYgMCAuNS4yMjQuNS41UzI1LjU4MSA0OS41NzUgMjUuMzA0IDQ5LjU3NXpNMTMuOTU3IDQ5LjU3NWgtLjU4Yy0uMjc2IDAtLjUtLjIyNC0uNS0uNXMuMjI0LS41LjUtLjVoLjU4Yy4yNzYgMCAuNS4yMjQuNS41UzE0LjIzMyA0OS41NzUgMTMuOTU3IDQ5LjU3NXpNMTEuNTggNDkuNTc1aC0xLjQ1NmMtLjI3NiAwLS41LS4yMjQtLjUtLjVzLjIyNC0uNS41LS41aDEuNDU2Yy4yNzYgMCAuNS4yMjQuNS41UzExLjg1NiA0OS41NzUgMTEuNTggNDkuNTc1ek0yMC43MTUgNDUuODQ1aC01LjAyN2MtLjI3NiAwLS41LS4yMjQtLjUtLjVzLjIyNC0uNS41LS41aDUuMDI3Yy4yNzYgMCAuNS4yMjQuNS41UzIwLjk5MiA0NS44NDUgMjAuNzE1IDQ1Ljg0NXpNMjAuNzE1IDQzLjk4aC0xLjI1OGMtLjI3NiAwLS41LS4yMjQtLjUtLjVzLjIyNC0uNS41LS41aDEuMjU4Yy4yNzYgMCAuNS4yMjQuNS41UzIwLjk5MiA0My45OCAyMC43MTUgNDMuOTh6TTE3LjQ0NyA1MS40NGgtMS43NTljLS4yNzYgMC0uNS0uMjI0LS41LS41cy4yMjQtLjUuNS0uNWgxLjc1OWMuMjc2IDAgLjUuMjI0LjUuNVMxNy43MjMgNTEuNDQgMTcuNDQ3IDUxLjQ0eiIgZmlsbD0iI2ZmZiIvPjxwYXRoIGQ9Ik03OS4xNDIsNTkuNjM2YzEuODgzLDAsMy41MTcsMCwzLjU0LDBjMi4xMSwwLDMuODIxLTEuNjc0LDMuODIxLTMuNzM5YzAtMS44MDItMS4zMDItMy4zMDUtMy4wMzUtMy42NmMwLjAyLTAuMTU4LDAuMDM0LTAuMzE3LDAuMDM0LTAuNDhjMC0yLjEzOS0xLjc3Mi0zLjg3My0zLjk1Ny0zLjg3M2MtMS4yOSwwLTIuNDMzLDAuNjA3LTMuMTU1LDEuNTQzYy0wLjE4NS0yLjM4MS0yLjM1OC00LjIxOC00LjktMy45MTNjLTEuODU5LDAuMjIzLTMuMzk3LDEuNjI5LTMuNzM5LDMuNDMxYy0wLjExLDAuNTc4LTAuMDk4LDEuMTM5LDAuMDExLDEuNjY1Yy0wLjQ5OC0wLjUyNS0xLjIwOC0wLjg1Ni0xLjk5OC0wLjg1NmMtMS40NDYsMC0yLjYyNywxLjEwMi0yLjcyLDIuNDk0Yy0wLjY1Ny0wLjE0Mi0xLjM3MS0wLjEzMy0yLjEyMywwLjE0M2MtMS40MzgsMC41MjgtMi40NjIsMS44NTMtMi41MjIsMy4zNTZjLTAuMDg1LDIuMTMzLDEuNjU3LDMuODg5LDMuODE4LDMuODg5YzAuMTY0LDAsMC43NDEsMCwwLjg3NCwwaDcuOTM0IE03Mi42NjUsNTkuNjM2aDAuMzYiIGZpbGw9IiNmZGZjZWYiLz48cGF0aCBkPSJNODIuNjgyLDYwLjEzNmgtMy41NGMtMC4yNzYsMC0wLjUtMC4yMjQtMC41LTAuNXMwLjIyNC0wLjUsMC41LTAuNWgzLjU0YzEuODMxLDAsMy4zMjEtMS40NTMsMy4zMjEtMy4yMzljMC0xLjUyNC0xLjEwOC0yLjg1Ni0yLjYzNy0zLjE2OWMtMC4yNTYtMC4wNTMtMC40MjktMC4yOTUtMC4zOTYtMC41NTVjMC4wMTgtMC4xMzcsMC4wMy0wLjI3NCwwLjAzLTAuNDE2YzAtMS44Ni0xLjU1MS0zLjM3My0zLjQ1Ny0zLjM3M2MtMS4wOTIsMC0yLjA5OCwwLjQ5MS0yLjc2LDEuMzQ4Yy0wLjEyNywwLjE2NC0wLjMzOSwwLjIzMi0wLjUzOSwwLjE3NGMtMC4xOTctMC4wNi0wLjMzOS0wLjIzNC0wLjM1NC0wLjQ0Yy0wLjA3OS0xLjAyLTAuNTY1LTEuOTQ0LTEuMzY5LTIuNjA0Yy0wLjgzLTAuNjgxLTEuODg5LTAuOTgxLTIuOTc0LTAuODUzYy0xLjY0NiwwLjE5Ny0zLjAwNiwxLjQ0My0zLjMwNywzLjAyOGMtMC4wOTUsMC40OTMtMC4wOTEsMC45ODgsMC4wMDksMS40NzFjMC4wNDYsMC4yMTktMC4wNiwwLjQ0MS0wLjI1OCwwLjU0NWMtMC4xOTYsMC4xMDMtMC40MzksMC4wNjMtMC41OTUtMC4xYy0wLjQyOC0wLjQ1MS0xLjAwOS0wLjctMS42MzUtMC43Yy0xLjE3LDAtMi4xNDYsMC44OTEtMi4yMjEsMi4wMjhjLTAuMDEsMC4xNDYtMC4wODIsMC4yNzgtMC4xOTgsMC4zNjZjLTAuMTE2LDAuMDg3LTAuMjY1LDAuMTIxLTAuNDA3LDAuMDg5Yy0wLjYzOS0wLjEzNy0xLjI0MS0wLjA5OS0xLjg0NiwwLjEyNGMtMS4yNjIsMC40NjQtMi4xNDQsMS42MzItMi4xOTMsMi45MDZjLTAuMDM1LDAuODc1LDAuMjgyLDEuNzA4LDAuODk1LDIuMzQ1YzAuNjM1LDAuNjYxLDEuNDk1LDEuMDI0LDIuNDIzLDEuMDI0aDguODA4YzAuMjc2LDAsMC41LDAuMjI0LDAuNSwwLjVzLTAuMjI0LDAuNS0wLjUsMC41aC04LjgwOGMtMS4xODUsMC0yLjMzMS0wLjQ4NS0zLjE0NC0xLjMzMWMtMC44MDMtMC44MzUtMS4yMTktMS45MjgtMS4xNzQtMy4wNzdjMC4wNjYtMS42NzUsMS4yMTItMy4yMDQsMi44NDktMy44MDdjMC42MTEtMC4yMjQsMS4yNDItMC4zMDcsMS44ODEtMC4yNDNjMC4zNDUtMS4zOTYsMS42MjktMi40MjUsMy4xMzYtMi40MjVjMC40OTMsMCwwLjk3NywwLjExMywxLjQxMywwLjMyM2MwLjAwOS0wLjI0MiwwLjAzNy0wLjQ4NCwwLjA4My0wLjcyNmMwLjM4MS0yLjAwOSwyLjA5Ni0zLjU4Niw0LjE3LTMuODM0YzEuMzYzLTAuMTY4LDIuNjg2LDAuMjE4LDMuNzI3LDEuMDcxYzAuNzQ4LDAuNjEzLDEuMjc4LDEuNDA5LDEuNTQ3LDIuMzAzYzAuNzkxLTAuNjQ4LDEuNzg1LTEuMDA3LDIuODQyLTEuMDA3YzIuNDU4LDAsNC40NTcsMS45NjIsNC40NTcsNC4zNzNjMCwwLjAzNC0wLjAwMSwwLjA2OC0wLjAwMiwwLjEwM2MxLjc2NSwwLjU1NSwzLjAwNCwyLjE4OCwzLjAwNCw0LjAzN0M4Ny4wMDQsNTguMjM1LDg1LjA2NSw2MC4xMzYsODIuNjgyLDYwLjEzNnogTTczLjAyNSw2MC4xMzZoLTAuMzZjLTAuMjc2LDAtMC41LTAuMjI0LTAuNS0wLjVzMC4yMjQtMC41LDAuNS0wLjVoMC4zNmMwLjI3NiwwLDAuNSwwLjIyNCwwLjUsMC41UzczLjMwMSw2MC4xMzYsNzMuMDI1LDYwLjEzNnoiIGZpbGw9IiM0NzJiMjkiLz48cGF0aCBkPSJNODAuOTc1IDU0LjMzNGMtLjAxOCAwLS4wMzYtLjAwMi0uMDU1LS4wMDYtLjEzNS0uMDMtLjIyLS4xNjQtLjE4OS0uMjk5LjAzNi0uMTYzLjA5NC0uMzI0LjE2OS0uNDc5LjYwNS0xLjIyNSAyLjI3NC0xLjY3NSAzLjcyMi0xLjAwNi4xMjYuMDU4LjE4MS4yMDYuMTIyLjMzMS0uMDU4LjEyNS0uMjA4LjE4LS4zMzEuMTIyLTEuMjA3LS41NTgtMi41NzktLjIwNy0zLjA2My43NzMtLjA1OS4xMTktLjEwMy4yNDItLjEzLjM2OEM4MS4xOTMgNTQuMjU0IDgxLjA5IDU0LjMzNCA4MC45NzUgNTQuMzM0ek03NS44MTYgNjAuMTM2SDc0LjcxYy0uMjc2IDAtLjUtLjIyNC0uNS0uNXMuMjI0LS41LjUtLjVoMS4xMDZjLjI3NiAwIC41LjIyNC41LjVTNzYuMDkyIDYwLjEzNiA3NS44MTYgNjAuMTM2eiIgZmlsbD0iIzQ3MmIyOSIvPjxwYXRoIGQ9Ik03MS41NDcgMjEuNDMzaC0xMC4wM2MtLjI3NiAwLS41LS4yMjQtLjUtLjVzLjIyNC0uNS41LS41aDEwLjAzYy4yNzYgMCAuNS4yMjQuNS41UzcxLjgyMyAyMS40MzMgNzEuNTQ3IDIxLjQzM3pNNzQuNDI3IDIxLjQzM2gtMS40NDVjLS4yNzYgMC0uNS0uMjI0LS41LS41cy4yMjQtLjUuNS0uNWgxLjQ0NWMuMjc2IDAgLjUuMjI0LjUuNVM3NC43MDQgMjEuNDMzIDc0LjQyNyAyMS40MzN6TTc4LjQ4MiAyMS40MzNoLTIuNTQ2Yy0uMjc2IDAtLjUtLjIyNC0uNS0uNXMuMjI0LS41LjUtLjVoMi41NDZjLjI3NiAwIC41LjIyNC41LjVTNzguNzU4IDIxLjQzMyA3OC40ODIgMjEuNDMzek03Ni40NTcgMTcuNzA0SDY2Ljg0Yy0uMjc2IDAtLjUtLjIyNC0uNS0uNXMuMjI0LS41LjUtLjVoOS42MTZjLjI3NiAwIC41LjIyNC41LjVTNzYuNzMzIDE3LjcwNCA3Ni40NTcgMTcuNzA0ek02NS4xMDggMTcuNzA0aC0uNThjLS4yNzYgMC0uNS0uMjI0LS41LS41cy4yMjQtLjUuNS0uNWguNThjLjI3NiAwIC41LjIyNC41LjVTNjUuMzg0IDE3LjcwNCA2NS4xMDggMTcuNzA0ek02Mi43MzIgMTcuNzA0aC0xLjQ1N2MtLjI3NiAwLS41LS4yMjQtLjUtLjVzLjIyNC0uNS41LS41aDEuNDU3Yy4yNzYgMCAuNS4yMjQuNS41UzYzLjAwOCAxNy43MDQgNjIuNzMyIDE3LjcwNHpNNzMuODkzIDE5LjU2OGgtNS4wMjdjLS4yNzYgMC0uNS0uMjI0LS41LS41cy4yMjQtLjUuNS0uNWg1LjAyN2MuMjc2IDAgLjUuMjI0LjUuNVM3NC4xNyAxOS41NjggNzMuODkzIDE5LjU2OHoiIGZpbGw9IiNmZmYiLz48cGF0aCBkPSJNNzMuODkzIDE3LjcwNGgtMS4yNTdjLS4yNzYgMC0uNS0uMjI0LS41LS41cy4yMjQtLjUuNS0uNWgxLjI1N2MuMjc2IDAgLjUuMjI0LjUuNVM3NC4xNyAxNy43MDQgNzMuODkzIDE3LjcwNHpNNjcuNDExIDE5LjU2OGgtMS43NTljLS4yNzYgMC0uNS0uMjI0LS41LS41cy4yMjQtLjUuNS0uNWgxLjc1OWMuMjc2IDAgLjUuMjI0LjUuNVM2Ny42ODcgMTkuNTY4IDY3LjQxMSAxOS41Njh6IiBmaWxsPSIjZmZmIi8+PHBhdGggZD0iTTU0LjM2Miw3NS45MjRjLTAuMjc2LDAtMC41LTAuMjI0LTAuNS0wLjVWMzIuNjk5YzAtMC4yNzYsMC4yMjQtMC41LDAuNS0wLjVzMC41LDAuMjI0LDAuNSwwLjV2NDIuNzI2QzU0Ljg2Miw3NS43MDEsNTQuNjM4LDc1LjkyNCw1NC4zNjIsNzUuOTI0eiIgZmlsbD0iIzQ3MmIyOSIvPjxwYXRoIGQ9Ik02Mi41MTksNjYuNTg2SDQ2LjkwNmMtMi4wMDcsMC0zLjY0OS0xLjY0Mi0zLjY0OS0zLjY0OVYyOS4wMDdjMC0yLjAwNywxLjY0Mi0zLjY0OSwzLjY0OS0zLjY0OWgxNS42MTNjMi4wMDcsMCwzLjY0OSwxLjY0MiwzLjY0OSwzLjY0OXYzMy45MjlDNjYuMTY4LDY0Ljk0Myw2NC41MjYsNjYuNTg2LDYyLjUxOSw2Ni41ODZ6IiBmaWxsPSIjODg4OWI5Ii8+PHBhdGggZD0iTTYyLjUxOSw2Ny4yODZINDYuOTA2Yy0yLjM5OCwwLTQuMzUtMS45NTEtNC4zNS00LjM1VjI5LjAwN2MwLTIuMzk4LDEuOTUxLTQuMzUsNC4zNS00LjM1aDE1LjYxM2MyLjM5OCwwLDQuMzUsMS45NTEsNC4zNSw0LjM1djMzLjkyOUM2Ni44NjksNjUuMzM1LDY0LjkxOCw2Ny4yODYsNjIuNTE5LDY3LjI4NnogTTQ2LjkwNiwyNi4wNThjLTEuNjI2LDAtMi45NDksMS4zMjMtMi45NDksMi45NDl2MzMuOTI5YzAsMS42MjYsMS4zMjMsMi45NDksMi45NDksMi45NDloMTUuNjEzYzEuNjI2LDAsMi45NDktMS4zMjMsMi45NDktMi45NDlWMjkuMDA3YzAtMS42MjYtMS4zMjMtMi45NDktMi45NDktMi45NDlINDYuOTA2eiIgZmlsbD0iIzQ3MmIyOSIvPjxwYXRoIGQ9Ik01MC4zNTcgMjkuMTE0TDYzLjQyNCAyOS4xMTQgNjMuNDI0IDMxLjk5OCA0Ni4wMDEgMzEuOTk4IDQ2LjAwMSAyOS4xMTQgNDcuMTI4IDI5LjExNCIgZmlsbD0iIzYxNjQ5MyIvPjxwYXRoIGQ9Ik02My40MjQsMzIuMzczSDQ2LjAwMmMtMC4yMDcsMC0wLjM3NS0wLjE2OC0wLjM3NS0wLjM3NXYtMi44ODRjMC0wLjIwNywwLjE2OC0wLjM3NSwwLjM3NS0wLjM3NWgxLjEyNmMwLjIwNywwLDAuMzc1LDAuMTY4LDAuMzc1LDAuMzc1cy0wLjE2OCwwLjM3NS0wLjM3NSwwLjM3NWgtMC43NTF2Mi4xMzRoMTYuNjczdi0yLjEzNEg1MC4zNTdjLTAuMjA3LDAtMC4zNzUtMC4xNjgtMC4zNzUtMC4zNzVzMC4xNjgtMC4zNzUsMC4zNzUtMC4zNzVoMTMuMDY3YzAuMjA3LDAsMC4zNzUsMC4xNjgsMC4zNzUsMC4zNzV2Mi44ODRDNjMuNzk5LDMyLjIwNSw2My42MzIsMzIuMzczLDYzLjQyNCwzMi4zNzN6IiBmaWxsPSIjNDcyYjI5Ii8+PHBhdGggZD0iTTU0LjcxMyA2MS40MTVBMS4wNTEgMS4wNTEgMCAxIDAgNTQuNzEzIDYzLjUxN0ExLjA1MSAxLjA1MSAwIDEgMCA1NC43MTMgNjEuNDE1WiIgZmlsbD0iI2ZiY2Q1OSIvPjxwYXRoIGQ9Ik01NC43MTMsNjMuODY3Yy0wLjc3MiwwLTEuNC0wLjYyOC0xLjQtMS40czAuNjI4LTEuNCwxLjQtMS40czEuNCwwLjYyOCwxLjQsMS40UzU1LjQ4NSw2My44NjcsNTQuNzEzLDYzLjg2N3ogTTU0LjcxMyw2MS43NjVjLTAuMzg3LDAtMC43MDEsMC4zMTQtMC43MDEsMC43MDFzMC4zMTQsMC43MDEsMC43MDEsMC43MDFzMC43MDEtMC4zMTQsMC43MDEtMC43MDFTNTUuMDk5LDYxLjc2NSw1NC43MTMsNjEuNzY1eiIgZmlsbD0iIzQ3MmIyOSIvPjxwYXRoIGQ9Ik01NC43MTMgNTQuMzM0OTk5OTk5OTk5OTk0QTIuODQgMi44NCAwIDEgMCA1NC43MTMgNjAuMDE1QTIuODQgMi44NCAwIDEgMCA1NC43MTMgNTQuMzM0OTk5OTk5OTk5OTk0WiIgZmlsbD0iI2ZiY2Q1OSIvPjxwYXRoIGQ9Ik01NC43MTMsNjAuMzY1Yy0xLjc2LDAtMy4xOS0xLjQzMS0zLjE5LTMuMTljMC0xLjc1OSwxLjQzMS0zLjE4OSwzLjE5LTMuMTg5czMuMTksMS40MzEsMy4xOSwzLjE4OUM1Ny45MDMsNTguOTM0LDU2LjQ3Miw2MC4zNjUsNTQuNzEzLDYwLjM2NXogTTU0LjcxMyw1NC42ODRjLTEuMzczLDAtMi40OTEsMS4xMTctMi40OTEsMi40OXMxLjExOCwyLjQ5MSwyLjQ5MSwyLjQ5MXMyLjQ5MS0xLjExOCwyLjQ5MS0yLjQ5MVM1Ni4wODYsNTQuNjg0LDU0LjcxMyw1NC42ODR6IiBmaWxsPSIjNDcyYjI5Ii8+PHBhdGggZD0iTTQ4LjYwNCAzNC43MTdMNjMuNDI0IDM0LjcxNyA2My40MjQgMzcuNjAxIDQ2LjAwMSAzNy42MDEgNDYuMDAxIDM0LjcxNyA0Ny4xMjcgMzQuNzE3IiBmaWxsPSIjNjE2NDkzIi8+PHBhdGggZD0iTTYzLjQyMywzNy45NzVINDYuMDAxYy0wLjIwNywwLTAuMzc1LTAuMTY4LTAuMzc1LTAuMzc1di0yLjg4NGMwLTAuMjA3LDAuMTY4LTAuMzc1LDAuMzc1LTAuMzc1aDEuMTI3YzAuMjA3LDAsMC4zNzUsMC4xNjgsMC4zNzUsMC4zNzVzLTAuMTY4LDAuMzc1LTAuMzc1LDAuMzc1aC0wLjc1MnYyLjEzNGgxNi42NzN2LTIuMTM0SDQ4LjYwNGMtMC4yMDcsMC0wLjM3NS0wLjE2OC0wLjM3NS0wLjM3NXMwLjE2OC0wLjM3NSwwLjM3NS0wLjM3NWgxNC44MTljMC4yMDcsMCwwLjM3NSwwLjE2OCwwLjM3NSwwLjM3NVYzNy42QzYzLjc5OCwzNy44MDcsNjMuNjMxLDM3Ljk3NSw2My40MjMsMzcuOTc1eiIgZmlsbD0iIzQ3MmIyOSIvPjxwYXRoIGQ9Ik01Ny4wOTcgNDMuMjA0TDQ2IDQzLjIwNCA0NiA0MC4zMiA2My40MjMgNDAuMzIgNjMuNDIzIDQzLjIwNCA2Mi4yOTcgNDMuMjA0IiBmaWxsPSIjNjE2NDkzIi8+PHBhdGggZD0iTTYzLjQyMyw0My41NzloLTEuMTI3Yy0wLjIwNywwLTAuMzc1LTAuMTY4LTAuMzc1LTAuMzc1czAuMTY4LTAuMzc1LDAuMzc1LTAuMzc1aDAuNzUydi0yLjEzNEg0Ni4zNzZ2Mi4xMzRoMTAuNzIxYzAuMjA3LDAsMC4zNzUsMC4xNjgsMC4zNzUsMC4zNzVzLTAuMTY4LDAuMzc1LTAuMzc1LDAuMzc1SDQ2LjAwMWMtMC4yMDcsMC0wLjM3NS0wLjE2OC0wLjM3NS0wLjM3NVY0MC4zMmMwLTAuMjA3LDAuMTY4LTAuMzc1LDAuMzc1LTAuMzc1aDE3LjQyM2MwLjIwNywwLDAuMzc1LDAuMTY4LDAuMzc1LDAuMzc1djIuODg0QzYzLjc5OCw0My40MTEsNjMuNjMxLDQzLjU3OSw2My40MjMsNDMuNTc5eiIgZmlsbD0iIzQ3MmIyOSIvPjxwYXRoIGQ9Ik02MC44MTcgNDMuNTc5SDU4Ljc2Yy0uMjA3IDAtLjM3NS0uMTY4LS4zNzUtLjM3NXMuMTY4LS4zNzUuMzc1LS4zNzVoMi4wNTdjLjIwNyAwIC4zNzUuMTY4LjM3NS4zNzVTNjEuMDI0IDQzLjU3OSA2MC44MTcgNDMuNTc5ek02Ny4yNDIgNzUuOTI0SDQyLjgwNWMtLjI3NiAwLS41LS4yMjQtLjUtLjVzLjIyNC0uNS41LS41aDI0LjQzN2MxLjQ3MiAwIDIuNjY5LTEuMTk3IDIuNjY5LTIuNjY5VjU5LjYzNmMwLS4yNzYuMjI0LS41LjUtLjVzLjUuMjI0LjUuNXYxMi42MTlDNzAuOTExIDc0LjI3OSA2OS4yNjUgNzUuOTI0IDY3LjI0MiA3NS45MjR6IiBmaWxsPSIjNDcyYjI5Ii8+PHBhdGggZD0iTTU0LjM2MiA3My4zMjNBMS43NTEgMS43NTEgMCAxIDAgNTQuMzYyIDc2LjgyNUExLjc1MSAxLjc1MSAwIDEgMCA1NC4zNjIgNzMuMzIzWiIgZmlsbD0iIzYxNjQ5MyIvPjxwYXRoIGQ9Ik01NC4zNjIsNzcuMmMtMS4xNzIsMC0yLjEyNi0wLjk1NC0yLjEyNi0yLjEyNnMwLjk1NC0yLjEyNiwyLjEyNi0yLjEyNmMxLjE3MywwLDIuMTI3LDAuOTU0LDIuMTI3LDIuMTI2UzU1LjUzNSw3Ny4yLDU0LjM2Miw3Ny4yeiBNNTQuMzYyLDczLjY5OGMtMC43NTksMC0xLjM3NiwwLjYxNy0xLjM3NiwxLjM3NnMwLjYxNywxLjM3NiwxLjM3NiwxLjM3NnMxLjM3Ny0wLjYxNywxLjM3Ny0xLjM3NlM1NS4xMjEsNzMuNjk4LDU0LjM2Miw3My42OTh6IiBmaWxsPSIjNDcyYjI5Ii8+PHBhdGggZD0iTTUzLjE4LDY2Ljg1OHYxLjc5NWMwLDAuNjUsMC41MzIsMS4xODIsMS4xODIsMS4xODJjMC42NSwwLDEuMTgyLTAuNTMyLDEuMTgyLTEuMTgydi0xLjc5NUg1My4xOHoiIGZpbGw9IiNmOWU3ZTUiLz48cGF0aCBkPSJNNTQuMzYyIDcwLjMzNmMtLjkyOCAwLTEuNjgyLS43NTUtMS42ODItMS42ODN2LTEuNzk1YzAtLjI3Ni4yMjQtLjUuNS0uNWgyLjM2NGMuMjc2IDAgLjUuMjI0LjUuNXYxLjc5NUM1Ni4wNDUgNjkuNTgxIDU1LjI5IDcwLjMzNiA1NC4zNjIgNzAuMzM2ek01My42OCA2Ny4zNTh2MS4yOTVjMCAuMzc2LjMwNi42ODMuNjgyLjY4M3MuNjgzLS4zMDcuNjgzLS42ODN2LTEuMjk1SDUzLjY4ek0zOC40OTggNjUuMDE3Yy0uMjc2IDAtLjUtLjIyNC0uNS0uNVY0Ny43MDljMC0yLjQ1Mi0xLjk5NS00LjQ0Ni00LjQ0Ny00LjQ0NmgtMi41MmMtLjI3NiAwLS41LS4yMjQtLjUtLjVzLjIyNC0uNS41LS41aDIuNTJjMy4wMDQgMCA1LjQ0NyAyLjQ0MyA1LjQ0NyA1LjQ0NnYxNi44MDlDMzguOTk4IDY0Ljc5NCAzOC43NzQgNjUuMDE3IDM4LjQ5OCA2NS4wMTd6IiBmaWxsPSIjNDcyYjI5Ii8+PHBhdGggZD0iTTI4LjkxOSw0NS40OTZjLTEuMjY0LDAtMi4yOTEtMS4wMjgtMi4yOTEtMi4yOTJzMS4wMjctMi4yOTIsMi4yOTEtMi4yOTJzMi4yOTIsMS4wMjgsMi4yOTIsMi4yOTJTMzAuMTgyLDQ1LjQ5NiwyOC45MTksNDUuNDk2eiBNMjguOTE5LDQxLjkxMmMtMC43MTIsMC0xLjI5MSwwLjU3OS0xLjI5MSwxLjI5MnMwLjU3OSwxLjI5MiwxLjI5MSwxLjI5MmMwLjcxMywwLDEuMjkyLTAuNTc5LDEuMjkyLTEuMjkyUzI5LjYzMSw0MS45MTIsMjguOTE5LDQxLjkxMnoiIGZpbGw9IiM0NzJiMjkiLz48cGF0aCBkPSJNMzQuMzMxLDc3LjZjMCwwLDExLjY5MSwwLDExLjc2MiwwYzIuNywwLDQuODg4LTIuMTg5LDQuODg4LTQuODg5YzAtMi4zNTUtMS42NjYtNC4zMjEtMy44ODQtNC43ODRjMC4wMjYtMC4yMDYsMC4wNDMtMC40MTUsMC4wNDMtMC42MjhjMC0yLjc5Ni0yLjI2Ny01LjA2My01LjA2My01LjA2M2MtMS42NTEsMC0zLjExMywwLjc5NC00LjAzNywyLjAxN2MtMC4yMzYtMy4xMTMtMy4wMTctNS41MTQtNi4yNy01LjExNmMtMi4zNzksMC4yOTEtNC4zNDYsMi4xMy00Ljc4NCw0LjQ4NmMtMC4xNCwwLjc1Ni0wLjEyNiwxLjQ4OSwwLjAxNCwyLjE3N2MtMC42MzgtMC42ODctMS41NDYtMS4xMTktMi41NTctMS4xMTljLTEuODUsMC0zLjM2MSwxLjQ0MS0zLjQ4LDMuMjYxYy0wLjg0LTAuMTg2LTEuNzU0LTAuMTc0LTIuNzE3LDAuMTg4Yy0xLjg0LDAuNjkxLTMuMTUsMi40MjMtMy4yMjcsNC4zODdjLTAuMTA5LDIuNzg5LDIuMTIsNS4wODUsNC44ODUsNS4wODVjMC4yMSwwLDAuOTQ4LDAsMS4xMTgsMGgxMC4xNTEiIGZpbGw9IiNmZGZjZWYiLz48cGF0aCBkPSJNNDYuMDkyLDc4LjFIMzQuMzMxYy0wLjI3NiwwLTAuNS0wLjIyNC0wLjUtMC41czAuMjI0LTAuNSwwLjUtMC41aDExLjc2MmMyLjQyLDAsNC4zODktMS45NjksNC4zODktNC4zODljMC0yLjA2Ni0xLjQ2Ni0zLjg3Mi0zLjQ4Ni00LjI5NWMtMC4yNTQtMC4wNTMtMC40MjYtMC4yOTItMC4zOTQtMC41NTFjMC4wMjItMC4xODYsMC4wMzktMC4zNzQsMC4wMzktMC41NjZjMC0yLjUxNy0yLjA0Ny00LjU2My00LjU2My00LjU2M2MtMS40MzgsMC0yLjc2NSwwLjY2My0zLjYzOSwxLjgxOGMtMC4xMjUsMC4xNjUtMC4zNDIsMC4yMzUtMC41MzksMC4xNzhjLTAuMi0wLjA1OS0wLjM0Mi0wLjIzNC0wLjM1OC0wLjQ0MWMtMC4xMDQtMS4zNzctMC43NzgtMi42NzEtMS44NS0zLjU0OWMtMS4wODItMC44ODgtMi40NTgtMS4yOC0zLjg2LTEuMTA5Yy0yLjE2NSwwLjI2Ni0zLjk1NSwxLjk0My00LjM1Myw0LjA4MWMtMC4xMjQsMC42NjctMC4xMiwxLjMzNSwwLjAxMywxLjk4NmMwLjA0NCwwLjIyLTAuMDYyLDAuNDQyLTAuMjYyLDAuNTQ0Yy0wLjE5NiwwLjEwNS0wLjQ0MiwwLjA2MS0wLjU5NS0wLjEwNGMtMC41NzUtMC42MTgtMS4zNTMtMC45NTktMi4xOS0wLjk1OWMtMS41NjgsMC0yLjg3OCwxLjIyNy0yLjk4LDIuNzkzYy0wLjAxLDAuMTQ2LTAuMDgyLDAuMjgtMC4xOTksMC4zNjdjLTAuMTE3LDAuMDg4LTAuMjY5LDAuMTE5LTAuNDA3LDAuMDg5Yy0wLjg0NC0wLjE4NS0xLjY0LTAuMTMyLTIuNDM0LDAuMTY3Yy0xLjY2OSwwLjYyOC0yLjgzNiwyLjIxMS0yLjkwMywzLjkzOWMtMC4wNDcsMS4yMDcsMC4zODcsMi4zNSwxLjIyMiwzLjIxOHMxLjk1OSwxLjM0NywzLjE2MywxLjM0N2gxMS4yN2MwLjI3NiwwLDAuNSwwLjIyNCwwLjUsMC41cy0wLjIyNCwwLjUtMC41LDAuNWgtMTEuMjdjLTEuNDc5LDAtMi44NTgtMC41ODctMy44ODQtMS42NTNjLTEuMDI1LTEuMDY1LTEuNTU5LTIuNDY5LTEuNTAxLTMuOTVjMC4wODQtMi4xMjYsMS41MTEtNC4wNjksMy41NTItNC44MzZjMC44LTAuMywxLjYyNy0wLjM5OCwyLjQ2OC0wLjI5OWMwLjM3Ny0xLjgyMiwxLjk5Ni0zLjE4MiwzLjkwNC0zLjE4MmMwLjY4NSwwLDEuMzU0LDAuMTgsMS45NDQsMC41MWMtMC4wMDEtMC4zODYsMC4wMzUtMC43NzIsMC4xMDctMS4xNTljMC40NzYtMi41NjIsMi42MTktNC41NzMsNS4yMTQtNC44OTFjMS42NzUtMC4yMDIsMy4zMiwwLjI2Niw0LjYxNSwxLjMyOGMxLjAwNCwwLjgyMywxLjcxNywxLjk1MSwyLjAzOCwzLjE5M2MxLjAxMy0wLjkxNiwyLjMxOS0xLjQyNiwzLjcxNC0xLjQyNmMzLjA2NywwLDUuNTYzLDIuNDk2LDUuNTYzLDUuNTYzYzAsMC4wODMtMC4wMDIsMC4xNjYtMC4wMDcsMC4yNDhjMi4yNTQsMC42NzQsMy44NDgsMi43NzcsMy44NDgsNS4xNjRDNTEuNDgxLDc1LjY4Myw0OS4wNjQsNzguMSw0Ni4wOTIsNzguMXoiIGZpbGw9IiM0NzJiMjkiLz48cGF0aCBkPSJNMzEuNDk3LDY2LjgzMWMtMS44MDgtMC4xMTktMy4zNjUsMS4xMy0zLjQ3NiwyLjc4OWMtMC4wMTQsMC4yMDYtMC4wMDUsMC40MDksMC4wMjUsMC42MDZjLTAuMzQ5LTAuMzk0LTAuODY1LTAuNjYxLTEuNDU4LTAuN2MtMS4wODUtMC4wNzEtMi4wMjIsMC42NDUtMi4xNTgsMS42MmMtMC4xOTctMC4wNTQtMC40MDMtMC4wOS0wLjYxNi0wLjEwNGMtMS41ODItMC4xMDQtMi45NDQsMC45ODktMy4wNDIsMi40NDEiIGZpbGw9IiNmZGZjZWYiLz48cGF0aCBkPSJNMjAuNzczLDczLjczM2MtMC4wMDYsMC0wLjAxMSwwLTAuMDE3LTAuMDAxYy0wLjEzOC0wLjAwOS0wLjI0Mi0wLjEyOC0wLjIzMi0wLjI2NmMwLjEwNS0xLjU4NywxLjU2MS0yLjc4NiwzLjMwNy0yLjY3NGMwLjEzNywwLjAwOSwwLjI3MywwLjAyNiwwLjQwOSwwLjA1M2MwLjI3My0wLjk2OCwxLjI1Mi0xLjY1MiwyLjM2NS0xLjU2N2MwLjQyNiwwLjAyNywwLjgyNCwwLjE2LDEuMTYzLDAuMzgyYzAuMDAxLTAuMDE5LDAuMDAyLTAuMDM3LDAuMDA0LTAuMDU2YzAuMTItMS43OTQsMS44MDEtMy4xNSwzLjc0Mi0zLjAyMWMwLjEzOCwwLjAwOSwwLjI0MiwwLjEyOCwwLjIzMiwwLjI2NmMtMC4wMDgsMC4xMzctMC4xMDUsMC4yNTktMC4yNjYsMC4yMzJjLTEuNjc4LTAuMTItMy4xMDgsMS4wMzYtMy4yMTEsMi41NTdjLTAuMDEyLDAuMTg3LTAuMDA0LDAuMzcyLDAuMDIzLDAuNTUyYzAuMDE3LDAuMTA5LTAuMDQxLDAuMjE4LTAuMTQxLDAuMjY1Yy0wLjEwMiwwLjA0NS0wLjIyMSwwLjAyMS0wLjI5NC0wLjA2MWMtMC4zMjEtMC4zNjQtMC43NzgtMC41ODMtMS4yODctMC42MTdjLTAuOTU2LTAuMDM4LTEuNzc1LDAuNTU2LTEuODkzLDEuNDA0Yy0wLjAxMSwwLjA3MS0wLjA1MSwwLjEzNS0wLjExLDAuMTc1cy0wLjEzNSwwLjA1MS0wLjIwMywwLjAzMmMtMC4xODctMC4wNTEtMC4zNzgtMC4wODMtMC41NjgtMC4wOTdjLTEuNDQzLTAuMDg4LTIuNjg3LDAuODk2LTIuNzc1LDIuMjA5QzIxLjAxMyw3My42MzEsMjAuOTA0LDczLjczMywyMC43NzMsNzMuNzMzeiIgZmlsbD0iIzQ3MmIyOSIvPjxwYXRoIGQ9Ik00OC4wNzIsNjguNWMtMS42OTktMC44MDEtMy42NjQtMC4yMzQtNC4zODksMS4yNjdjLTAuMDksMC4xODYtMC4xNTcsMC4zNzktMC4yMDEsMC41NzQiIGZpbGw9IiNmZGZjZWYiLz48cGF0aCBkPSJNNDMuNDgyLDcwLjU5Yy0wLjAxOSwwLTAuMDM3LTAuMDAyLTAuMDU2LTAuMDA3Yy0wLjEzNS0wLjAzLTAuMjE5LTAuMTY1LTAuMTg4LTAuMjk5YzAuMDQ5LTAuMjE2LDAuMTIzLTAuNDI3LDAuMjE5LTAuNjI2YzAuNzgzLTEuNjIyLDIuOS0yLjI0Miw0LjcyMS0xLjM4NWMwLjEyNSwwLjA2LDAuMTc5LDAuMjA4LDAuMTIsMC4zMzNjLTAuMDYsMC4xMjYtMC4yMSwwLjE3Ni0wLjMzMywwLjEyYy0xLjU3NS0wLjc0My0zLjM5NC0wLjIyNi00LjA1NywxLjE0OGMtMC4wOCwwLjE2Ni0wLjE0MiwwLjM0Mi0wLjE4NCwwLjUyMUM0My42OTksNzAuNTEyLDQzLjU5Niw3MC41OSw0My40ODIsNzAuNTl6IiBmaWxsPSIjNDcyYjI5Ii8+PC9zdmc+;" parent="1" vertex="1">
          <mxGeometry x="150" y="280" width="170" height="170" as="geometry" />
        </mxCell>
        <mxCell id="o6u1TMJKNHqgdZABAcJ1-14" value="&lt;div&gt;Browser&lt;/div&gt;" style="rounded=1;whiteSpace=wrap;html=1;fillColor=#0066CC;fontColor=#ffffff;strokeColor=#001DBC;arcSize=23;fontSize=15;fontStyle=1;fontFamily=Tahoma;" parent="1" vertex="1">
          <mxGeometry x="606.5300000000001" y="250" width="82.93" height="20" as="geometry" />
        </mxCell>
        <mxCell id="o6u1TMJKNHqgdZABAcJ1-15" value="" style="shape=image;imageAspect=0;aspect=fixed;verticalLabelPosition=bottom;verticalAlign=top;image=data:image/svg+xml,PHN2ZyBoZWlnaHQ9IjEyMHB4IiB3aWR0aD0iMTIwcHgiIHZpZXdCb3g9IjAgMCA2MCA2MCIgeG1sbnM9Imh0dHA6Ly93d3cudzMub3JnLzIwMDAvc3ZnIj48cGF0aCBkPSJNNDksOVY0NC45Nkw0NS45Niw1MEg0YTMsMywwLDAsMS0zLTNWOUwyLDhINDhaIiBmaWxsPSIjZTRmMGY3Ii8+PHBhdGggZD0iTTQ5LDRWOUgxVjRBMywzLDAsMCwxLDQsMUg0NkEzLDMsMCwwLDEsNDksNFoiIGZpbGw9IiM0OTgyYzgiLz48cGF0aCBkPSJNNTguNDM4LDU3LjFsLTEuMzQsMS4zNGExLjksMS45LDAsMCwxLTIuNywwTDM5LjQ5MSw0My41MzFhMTAuOTkyLDEwLjk5MiwwLDAsMS0xNi4zNTktNy44MzksMTEuMTM3LDExLjEzNywwLDAsMSwwLTMuNDEsMS41NjgsMS41NjgsMCwwLDEsMi42Ni0uODRsNC45Nyw0Ljk2OWExLjk4NiwxLjk4NiwwLDAsMCwyLjgzLDBsMi44MTktMi44MTlhMS45ODYsMS45ODYsMCwwLDAsMC0yLjgzbC00Ljk2OS00Ljk3YTEuNTY4LDEuNTY4LDAsMCwxLC44NC0yLjY2LDExLjEzNywxMS4xMzcsMCwwLDEsMy40MSwwLDEwLjk5MiwxMC45OTIsMCwwLDEsNy44MzksMTYuMzU5TDU4LjQzOCw1NC40QTEuOSwxLjksMCwwLDEsNTguNDM4LDU3LjFaIiBmaWxsPSIjYjVjZGRkIi8+PHBhdGggZD0iTTU0LjkyNCwzNS43NThhMS4yNDIsMS4yNDIsMCwwLDEtLjc3NCwxLjA1MmwtMS41OC42M2ExOC44MTMsMTguODEzLDAsMCwxLS43MTksMi43NDkuODE0LjgxNCwwLDAsMS0xLjM0NS4zMTdsLTEuODI0LTEuODI0YS44LjgsMCwwLDEtLjItLjc4MkExNC42MDYsMTQuNjA2LDAsMCwwLDQ5LDM0LjIyNSwxNSwxNSwwLDEsMCwzNC4yMjQsNDlhMTQuNjA4LDE0LjYwOCwwLDAsMCwzLjY3Ni0uNTE2LjguOCwwLDAsMSwuNzgyLjJsMS44MjQsMS44MjRhLjgxNC44MTQsMCwwLDEtLjMxNywxLjM0NSwxOC44MTMsMTguODEzLDAsMCwxLTIuNzQ5LjcxOWwtLjYzMywxLjU4OGExLjIzNywxLjIzNywwLDAsMS0xLjAzNS43NjUsMTkuNzI1LDE5LjcyNSwwLDAsMS0zLjUzLDAsMS4yNDIsMS4yNDIsMCwwLDEtMS4wNTItLjc3NGwtLjYzLTEuNThhMTguOTQxLDE4Ljk0MSwwLDAsMS03LjI3LTNsLTEuNTUuNjZhMS4yMjYsMS4yMjYsMCwwLDEtMS4yNjUtLjE3NCwyMS43ODQsMjEuNzg0LDAsMCwxLTIuNTE1LTIuNTEzLDEuMjMsMS4yMywwLDAsMS0uMTktMS4yODNsLjY2LTEuNTVhMTguOTQxLDE4Ljk0MSwwLDAsMS0zLTcuMjdsLTEuNTg4LS42MzNhMS4yMzcsMS4yMzcsMCwwLDEtLjc2NS0xLjAzNSwxOS43MjUsMTkuNzI1LDAsMCwxLDAtMy41MywxLjI0MiwxLjI0MiwwLDAsMSwuNzc0LTEuMDUybDEuNTgtLjYzYTE4Ljk0MSwxOC45NDEsMCwwLDEsMy03LjI3bC0uNjYtMS41NWExLjIyNiwxLjIyNiwwLDAsMSwuMTY5LTEuMjU5LDIwLjk0LDIwLjk0LDAsMCwxLDIuNTE2LTIuNTIsMS4yMzQsMS4yMzQsMCwwLDEsMS4yODUtLjE5MWwxLjU1LjY2YTE4Ljk0MSwxOC45NDEsMCwwLDEsNy4yNy0zbC42MzMtMS41ODhhMS4yMzcsMS4yMzcsMCwwLDEsMS4wMzUtLjc2NSwxOS43MjUsMTkuNzI1LDAsMCwxLDMuNTMsMCwxLjI0MiwxLjI0MiwwLDAsMSwxLjA1Mi43NzRsLjYzLDEuNThhMTguOTQxLDE4Ljk0MSwwLDAsMSw3LjI3LDNsMS41NS0uNjZhMS4yMjYsMS4yMjYsMCwwLDEsMS4yNjUuMTc0LDIxLjcsMjEuNywwLDAsMSwyLjUxNSwyLjUxMywxLjIzLDEuMjMsMCwwLDEsLjE5LDEuMjgzbC0uNjYsMS41NWExOC45NDEsMTguOTQxLDAsMCwxLDMsNy4yN2wxLjU4OC42MzNhMS4yMzcsMS4yMzcsMCwwLDEsLjc2NSwxLjAzNUExOS43MjUsMTkuNzI1LDAsMCwxLDU0LjkyNCwzNS43NThaIiBmaWxsPSIjYjVjZGRkIi8+PGc+PHBhdGggZD0iTTU1Ljc0Nyw1MC4yOTNhMSwxLDAsMCwwLTEuNDE0LDEuNDE0bDMuNCwzLjRhLjkwOS45MDksMCwwLDEsLjI3LjY1Ljg5MS44OTEsMCwwLDEtLjI3LjYzN2wtMS4zNDQsMS4zNDRhLjg4Ny44ODcsMCwwLDEtLjYzMi4yNjVoMGEuOTEuOTEsMCwwLDEtLjY0Ny0uMjdMNDAuMiw0Mi44MjRhMSwxLDAsMCwwLTEuMjEtLjE1Nyw5Ljk5Miw5Ljk5MiwwLDAsMS0xNC44NjctNy4xMjgsMTAuMTA4LDEwLjEwOCwwLDAsMSwwLTMuMS41MjQuNTI0LDAsMCwxLC4zNzEtLjQzLjU3Mi41NzIsMCwwLDEsLjU5NC4xNGw0Ljk2NSw0Ljk2NmEyLjk2NCwyLjk2NCwwLDAsMCwyLjExNC44OWguMDA5YTIuOTksMi45OSwwLDAsMCwyLjEyNi0uODg2TDM3LjExOCwzNC4zQTIuOTkyLDIuOTkyLDAsMCwwLDM4LDMyLjE2NGEyLjk1NywyLjk1NywwLDAsMC0uODg2LTIuMTA5bC00Ljk3LTQuOTdhLjU3Mi41NzIsMCwwLDEtLjE0LS41OTMuNTIyLjUyMiwwLDAsMSwuNDMtLjM3MUExMCwxMCwwLDAsMSw0Mi42NjcsMzguOTg4YTEsMSwwLDAsMCwuMTU3LDEuMjFsOC41MDksOC41MDlhMSwxLDAsMCwwLDEuNDE0LTEuNDE0TDUwLDQ0LjU0NlY0MS4zNjlhMS44LDEuOCwwLDAsMCwyLjgtLjg1NCwyMC4wOTEsMjAuMDkxLDAsMCwwLC42NS0yLjM0N2wxLjA3NC0uNDI5YTIuMjI3LDIuMjI3LDAsMCwwLDEuNC0xLjksMjAuNjMyLDIwLjYzMiwwLDAsMCwwLTMuNzEzLDIuMjMyLDIuMjMyLDAsMCwwLTEuMzg5LTEuODY1bC0xLjA4NC0uNDMzQTE5LjgwNSwxOS44MDUsMCwwLDAsNTAuNywyMy4xODdsLjQ0OS0xLjA1NWEyLjI0NCwyLjI0NCwwLDAsMC0uMzUxLTIuMzI2Yy0uMjY3LS4zMTEtLjUzMy0uNi0uOC0uODg2VjRhNCw0LDAsMCwwLTQtNEg0QTQsNCwwLDAsMCwwLDRWNDdhNCw0LDAsMCwwLDQsNEgyMC4xMTdhMi4yLDIuMiwwLDAsMCwyLjAxNS4xNWwxLjA1NS0uNDQ5YTE5LjgwNSwxOS44MDUsMCwwLDAsNi42NDUsMi43NDRsLjQyOSwxLjA3NWEyLjIyNywyLjIyNywwLDAsMCwxLjksMS40Yy41MTIuMDQ0LDEuMTc1LjA4MywxLjkxMi4wODMuNTY5LDAsMS4xOC0uMDI0LDEuOC0uMDg1YTIuMjMyLDIuMjMyLDAsMCwwLDEuODY1LTEuMzg5bC40MzMtMS4wODNhMjAuMTYxLDIwLjE2MSwwLDAsMCwyLjM0OC0uNjUsMS44MDgsMS44MDgsMCwwLDAsMS4xOC0xLjMxMkExLjc2OCwxLjc2OCwwLDAsMCw0MS43MzksNTFoMy44MDdsOC4xNDQsOC4xNDVBMi45LDIuOSwwLDAsMCw1NS43NTEsNjBoLjAxYTIuODcxLDIuODcxLDAsMCwwLDIuMDQ0LS44NTVMNTkuMTQsNTcuODFhMi45LDIuOSwwLDAsMCwuMDA1LTQuMTJaTTQsMkg0NmEyLDIsMCwwLDEsMiwyVjhIMlY0QTIsMiwwLDAsMSw0LDJaTTIsNDdWMTBINDh2Ny4wNzRhMi4yMDYsMi4yMDYsMCwwLDAtMi4xMzItLjIyNGwtMS4wNTUuNDQ5YTE5LjgwNSwxOS44MDUsMCwwLDAtNi42NDUtMi43NDRsLS40MjktMS4wNzVhMi4yMjcsMi4yMjcsMCwwLDAtMS45LTEuNCwyMC43MjYsMjAuNzI2LDAsMCwwLTMuNzEzLDAsMi4yMzIsMi4yMzIsMCwwLDAtMS44NjUsMS4zODlsLS40MzMsMS4wODRBMTkuODA1LDE5LjgwNSwwLDAsMCwyMy4xODcsMTcuM2wtMS4wNTUtLjQ0OUEyLjI0NCwyLjI0NCwwLDAsMCwxOS44LDE3LjJhMjIsMjIsMCwwLDAtMi42MzYsMi42NDIsMi4yMTQsMi4yMTQsMCwwLDAtLjMxOCwyLjI4OGwuNDQ5LDEuMDU1YTE5LjgwNSwxOS44MDUsMCwwLDAtMi43NDQsNi42NDVsLTEuMDc1LjQyOWEyLjIyNywyLjIyNywwLDAsMC0xLjQsMS45LDIwLjYzMiwyMC42MzIsMCwwLDAsMCwzLjcxMywyLjIzMiwyLjIzMiwwLDAsMCwxLjM4OSwxLjg2NWwxLjA4NC40MzNBMTkuODA1LDE5LjgwNSwwLDAsMCwxNy4zLDQ0LjgxM2wtLjQ0OSwxLjA1NWEyLjI0NCwyLjI0NCwwLDAsMCwuMzUxLDIuMzI2Yy4yNDEuMjgxLjQ4MS41NDguNzIyLjgwNkg0QTIsMiwwLDAsMSwyLDQ3Wm0zNS4yNjEsNC41ODdhMSwxLDAsMCwwLS43NDkuNjEybC0uNjM0LDEuNTg4YS4yNDEuMjQxLDAsMCwxLS4yLjE0MSwxOC44OCwxOC44OCwwLDAsMS0zLjM0NiwwLC4yNDIuMjQyLDAsMCwxLS4yMDgtLjE0OWwtLjYzMS0xLjU4YTEsMSwwLDAsMC0uNzQ3LS42MTIsMTcuODc2LDE3Ljg3NiwwLDAsMS02Ljg4Ny0yLjg0Mi45OTQuOTk0LDAsMCwwLS41NjQtLjE3NSwxLjAxLDEuMDEsMCwwLDAtLjM5Mi4wOGwtMS41NDguNjZhLjIzMy4yMzMsMCwwLDEtLjIzMy0uMDIxLDIwLjYxMiwyMC42MTIsMCwwLDEtMi40LTIuNC4yMzYuMjM2LDAsMCwxLS4wMy0uMjQxTDE5LjM1LDQ1LjFhMSwxLDAsMCwwLS4xLS45NTYsMTcuODc2LDE3Ljg3NiwwLDAsMS0yLjg0Mi02Ljg4NywxLDEsMCwwLDAtLjYxMi0uNzQ3bC0xLjU4OC0uNjM0YS4yNDEuMjQxLDAsMCwxLS4xNDEtLjIsMTguNzg1LDE4Ljc4NSwwLDAsMSwwLTMuMzQ2LjI0Mi4yNDIsMCwwLDEsLjE0OS0uMjA4bDEuNTgtLjYzMWExLDEsMCwwLDAsLjYxMi0uNzQ3LDE3Ljg3NiwxNy44NzYsMCwwLDEsMi44NDItNi44ODcsMSwxLDAsMCwwLC4xLS45NTZsLS42NjEtMS41NDlhLjIzMi4yMzIsMCwwLDEsLjAyLS4yMywxOS45NjIsMTkuOTYyLDAsMCwxLDIuNC0yLjQuMjM3LjIzNywwLDAsMSwuMjQ0LS4wMzJsMS41NDkuNjYxYTEsMSwwLDAsMCwuOTU2LS4xLDE3Ljg3NiwxNy44NzYsMCwwLDEsNi44ODctMi44NDIsMSwxLDAsMCwwLC43NDctLjYxMmwuNjM0LTEuNTg4YS4yNDEuMjQxLDAsMCwxLC4yLS4xNDEsMTguNjkyLDE4LjY5MiwwLDAsMSwzLjM0NiwwLC4yNDIuMjQyLDAsMCwxLC4yMDguMTQ5bC42MzEsMS41OGExLDEsMCwwLDAsLjc0Ny42MTIsMTcuODc2LDE3Ljg3NiwwLDAsMSw2Ljg4NywyLjg0MiwxLDEsMCwwLDAsLjk1Ni4xbDEuNTQ4LS42NmEuMjI2LjIyNiwwLDAsMSwuMjMzLjAyMiwyMC40NDEsMjAuNDQxLDAsMCwxLDIuNCwyLjQuMjM2LjIzNiwwLDAsMSwuMDMuMjQxTDQ4LjY1LDIyLjlhMSwxLDAsMCwwLC4wOTUuOTU2LDE3Ljg3NiwxNy44NzYsMCwwLDEsMi44NDIsNi44ODcsMSwxLDAsMCwwLC42MTIuNzQ3bDEuNTg4LjYzNGEuMjQxLjI0MSwwLDAsMSwuMTQxLjIsMTguNzg1LDE4Ljc4NSwwLDAsMSwwLDMuMzQ2LjI0Mi4yNDIsMCwwLDEtLjE0OS4yMDhsLTEuNTguNjMxYTEsMSwwLDAsMC0uNjEyLjc0OUExOC4xNjMsMTguMTYzLDAsMCwxLDUxLDM5LjU4NGwtMS41MjQtMS41MjNBMTUuNzE0LDE1LjcxNCwwLDAsMCw1MCwzNC4yMzksMTYsMTYsMCwxLDAsMzQuMjM3LDUwYTE1Ljc0MSwxNS43NDEsMCwwLDAsMy44MjQtLjUyM0wzOS41ODQsNTFBMTguMTYzLDE4LjE2MywwLDAsMSwzNy4yNjEsNTEuNTg3Wk00MC40MTQsNDlsLTEuMDI1LTEuMDI1YTEuNzk0LDEuNzk0LDAsMCwwLTEuNzUzLS40NTZBMTMuNzY1LDEzLjc2NSwwLDAsMSwzNC4yMDksNDgsMTQsMTQsMCwxLDEsNDgsMzQuMjFhMTMuNzY5LDEzLjc2OSwwLDAsMS0uNDc5LDMuNDI0LDEuOCwxLjgsMCwwLDAsLjQ1NiwxLjc1NWwuMDI1LjAyNXYzLjEzMmwtMy4yMzUtMy4yMzVBMTIuMDEsMTIuMDEsMCwwLDAsMzIuMTI2LDIyLjE0NmEyLjUzLDIuNTMsMCwwLDAtMi4wMiwxLjcyOCwyLjU3MiwyLjU3MiwwLDAsMCwuNjI4LDIuNjI1bDQuOTc0LDQuOTc1YS45NzQuOTc0LDAsMCwxLC4zLjcsMSwxLDAsMCwxLS4zLjcxNUwzMi44ODUsMzUuN2EuOTM5LjkzOSwwLDAsMS0uNzE1LjMuOTgyLjk4MiwwLDAsMS0uNy0uM2wtNC45Ny00Ljk3YTIuNTY5LDIuNTY5LDAsMCwwLTIuNjI2LS42MjgsMi41MzMsMi41MzMsMCwwLDAtMS43MjgsMi4wMjFBMTIsMTIsMCwwLDAsMzkuMzExLDQ0Ljc2NUw0My41NDYsNDlaIiBmaWxsPSIjMzczNzM3Ii8+PHBhdGggZD0iTTUsNkg2QTEsMSwwLDAsMCw2LDRINUExLDEsMCwwLDAsNSw2WiIgZmlsbD0iIzM3MzczNyIvPjxwYXRoIGQ9Ik0xMCw2aDFhMSwxLDAsMCwwLDAtMkgxMGExLDEsMCwwLDAsMCwyWiIgZmlsbD0iIzM3MzczNyIvPjxwYXRoIGQ9Ik0xNSw2aDFhMSwxLDAsMCwwLDAtMkgxNWExLDEsMCwwLDAsMCwyWiIgZmlsbD0iIzM3MzczNyIvPjxwYXRoIGQ9Ik0zOSw2aDZhMSwxLDAsMCwwLDAtMkgzOWExLDEsMCwwLDAsMCwyWiIgZmlsbD0iIzM3MzczNyIvPjwvZz48L3N2Zz4=;" parent="1" vertex="1">
          <mxGeometry x="623" y="387.75" width="50" height="50" as="geometry" />
        </mxCell>
        <mxCell id="o6u1TMJKNHqgdZABAcJ1-18" value="Worker" style="rounded=1;whiteSpace=wrap;html=1;fillColor=#0066CC;fontColor=#ffffff;strokeColor=#001DBC;arcSize=23;fontSize=15;fontStyle=1;fontFamily=Tahoma;" parent="1" vertex="1">
          <mxGeometry x="673" y="402.75" width="70" height="20" as="geometry" />
        </mxCell>
        <mxCell id="o6u1TMJKNHqgdZABAcJ1-20" value="Server" style="rounded=1;whiteSpace=wrap;html=1;fillColor=#0066CC;fontColor=#ffffff;strokeColor=#001DBC;arcSize=23;fontSize=15;fontStyle=1;fontFamily=Tahoma;" parent="1" vertex="1">
          <mxGeometry x="226" y="270" width="70" height="20" as="geometry" />
        </mxCell>
        <mxCell id="o6u1TMJKNHqgdZABAcJ1-32" value="1" style="ellipse;whiteSpace=wrap;html=1;aspect=fixed;fontStyle=1;fontSize=15;" parent="1" vertex="1">
          <mxGeometry x="440" y="253" width="30" height="30" as="geometry" />
        </mxCell>
        <mxCell id="o6u1TMJKNHqgdZABAcJ1-33" value="3" style="ellipse;whiteSpace=wrap;html=1;aspect=fixed;fontStyle=1;fontSize=15;" parent="1" vertex="1">
          <mxGeometry x="440" y="367" width="30" height="30" as="geometry" />
        </mxCell>
        <mxCell id="o6u1TMJKNHqgdZABAcJ1-35" value="" style="endArrow=classic;html=1;rounded=0;entryX=-0.025;entryY=0.092;entryDx=0;entryDy=0;entryPerimeter=0;strokeWidth=2;" parent="1" edge="1">
          <mxGeometry width="50" height="50" relative="1" as="geometry">
            <mxPoint x="323" y="344.48" as="sourcePoint" />
            <mxPoint x="588" y="345.52" as="targetPoint" />
          </mxGeometry>
        </mxCell>
        <mxCell id="o6u1TMJKNHqgdZABAcJ1-36" value="" style="endArrow=classic;html=1;rounded=0;exitX=-0.033;exitY=0.142;exitDx=0;exitDy=0;entryX=1.046;entryY=0.062;entryDx=0;entryDy=0;exitPerimeter=0;entryPerimeter=0;strokeWidth=2;" parent="1" source="o6u1TMJKNHqgdZABAcJ1-8" target="o6u1TMJKNHqgdZABAcJ1-10" edge="1">
          <mxGeometry width="50" height="50" relative="1" as="geometry">
            <mxPoint x="570" y="285" as="sourcePoint" />
            <mxPoint x="360" y="235" as="targetPoint" />
          </mxGeometry>
        </mxCell>
        <mxCell id="14M7ILRCnpGqh378__P8-2" value="JWT Key" style="points=[[0,0.5,0],[0.24,0,0],[0.5,0.28,0],[0.995,0.475,0],[0.5,0.72,0],[0.24,1,0]];verticalLabelPosition=bottom;sketch=0;html=1;verticalAlign=top;aspect=fixed;align=center;pointerEvents=1;shape=mxgraph.cisco19.key;fillColor=#005073;strokeColor=none;fontStyle=1;fontSize=13;" vertex="1" parent="1">
          <mxGeometry x="479.99999999999994" y="318.75" width="50" height="22.5" as="geometry" />
        </mxCell>
        <mxCell id="14M7ILRCnpGqh378__P8-3" value="2" style="ellipse;whiteSpace=wrap;html=1;aspect=fixed;fontStyle=1;fontSize=15;" vertex="1" parent="1">
          <mxGeometry x="440" y="311.25" width="30" height="30" as="geometry" />
        </mxCell>
        <mxCell id="14M7ILRCnpGqh378__P8-4" value="" style="shape=image;imageAspect=0;aspect=fixed;verticalLabelPosition=bottom;verticalAlign=top;image=data:image/svg+xml,PHN2ZyB4bWxucz0iaHR0cDovL3d3dy53My5vcmcvMjAwMC9zdmciIGhlaWdodD0iMTAwcHgiIHdpZHRoPSIxMDBweCIgdmlld0JveD0iMCAwIDUwIDUwIj48cGF0aCBkPSJNIDE1IDEgQyAxMy4zNSAxIDEyIDIuMzUgMTIgNCBMIDEyIDQ2IEMgMTIgNDcuNjUgMTMuMzUgNDkgMTUgNDkgTCAzMi4wNjA1NDcgNDkgQyAzMS4zODA1NDcgNDguNCAzMC43OCA0Ny43MyAzMC4yNSA0NyBMIDE1IDQ3IEMgMTQuNDUgNDcgMTQgNDYuNTUgMTQgNDYgTCAxNCA0IEMgMTQgMy40NSAxNC40NSAzIDE1IDMgTCAyMy4zMzM5ODQgMyBMIDIzLjY4MzU5NCA0LjA1MDc4MTIgQyAyMy44NzI1OTQgNC42MTc3ODEzIDI0LjQwMyA1IDI1IDUgQyAyNS41OTcgNSAyNi4xMjc0MDYgNC42MTc3ODEzIDI2LjMxNjQwNiA0LjA1MDc4MTIgTCAyNi42NjYwMTYgMyBMIDM1IDMgQyAzNS41NSAzIDM2IDMuNDUgMzYgNCBMIDM2IDI4LjY4OTQ1MyBDIDM2LjY0IDI4LjQ0OTQ1MyAzNy4zMSAyOC4yNzk5MjIgMzggMjguMTY5OTIyIEwgMzggNCBDIDM4IDIuMzUgMzYuNjUgMSAzNSAxIEwgMTUgMSB6IE0gMjQuOTQxNDA2IDkgQyAyMS4yNDg0MDYgOS4wNjQgMjAuOTM1Mjk3IDExLjc2ODA0NyAyMS42NTQyOTcgMTQuMzczMDQ3IEMgMjEuNjU0Mjk3IDE0LjM3MzA0NyAyMS4yNjkwNjMgMTQuNzQwNzY2IDIxLjI4OTA2MiAxNS4yNTk3NjYgQyAyMS4zMjcwNjMgMTYuMjM5NzY2IDIyLjAxNzU3OCAxNi41NDg4MjggMjIuMDE3NTc4IDE2LjU0ODgyOCBDIDIyLjE0OTU3OCAxNy40NTc4MjggMjMuMDAwNjg4IDE4LjI3NDc4MSAyMy4zMDQ2ODggMTguNDI1NzgxIEMgMjMuMzA0Njg4IDE5LjAwNTc4MSAyMy4zNjQ2ODcgMTkuNDQ5OTM3IDIzLjMwNDY4OCAyMC4wODU5MzggQyAyMi41NzQ2ODcgMjEuOTQyOTM3IDE3LjY5NzcwMyAyMS40MiAxNy40NzA3MDMgMjUgTCAzMi41MjkyOTcgMjUgQyAzMi4zMDEyOTcgMjEuNDIgMjcuNDI0MzU5IDIxLjk0MTkzOCAyNi42OTMzNTkgMjAuMDg1OTM4IEMgMjYuNjMzMzU5IDE5LjQ1MDkzNyAyNi42OTMzNTkgMTkuMDA4NzM0IDI2LjY5MzM1OSAxOC40Mjc3MzQgQyAyNy4xMTQzNTkgMTguMjM3NzM0IDI3LjgwMzQwNiAxNy40NzM3ODEgMjcuOTQxNDA2IDE2LjU1MDc4MSBDIDI3Ljk0MTQwNiAxNi41NTA3ODEgMjguNjY5OTIyIDE2LjExNjU3OCAyOC42Njk5MjIgMTUuMzkyNTc4IEMgMjguNjY5OTIyIDE0Ljg4NTU3OCAyOC40OTE2NTYgMTQuNTEwMDQ3IDI4LjM0NzY1NiAxNC4zNzMwNDcgQyAyOC43Mzc2NTYgMTMuMjY2MDQ3IDI5LjQwNDkzOCA5Ljg4MjgxMjUgMjYuODM1OTM4IDkuODgyODEyNSBDIDI2LjU1ODkzNyA5LjQyMTgxMjUgMjUuODY0NDA2IDkgMjQuOTQxNDA2IDkgeiBNIDE5IDMwIEMgMTguNDUgMzAgMTggMzAuNDUgMTggMzEgQyAxOCAzMS41NSAxOC40NSAzMiAxOSAzMiBMIDMxIDMyIEMgMzEuMDIgMzIgMzEuMDMwNzgxIDMyLjAwMDIzNCAzMS4wNTA3ODEgMzEuOTkwMjM0IEMgMzEuMzUwNzgxIDMxLjY2MDIzNCAzMS42NjAyMzQgMzEuMzUwNzgxIDMxLjk5MDIzNCAzMS4wNTA3ODEgQyAzMi4wMDAyMzQgMzEuMDMwNzgxIDMyIDMxLjAyIDMyIDMxIEMgMzIgMzAuNDUgMzEuNTUgMzAgMzEgMzAgTCAxOSAzMCB6IE0gNDAgMzAgQyAzNC41IDMwIDMwIDM0LjUgMzAgNDAgQyAzMCA0NS41IDM0LjUgNTAgNDAgNTAgQyA0NS41IDUwIDUwIDQ1LjUgNTAgNDAgQyA1MCAzNC41IDQ1LjUgMzAgNDAgMzAgeiBNIDQwIDMyIEMgNDQuNCAzMiA0OCAzNS42IDQ4IDQwIEMgNDggNDQuNCA0NC40IDQ4IDQwIDQ4IEMgMzUuNiA0OCAzMiA0NC40IDMyIDQwIEMgMzIgMzUuNiAzNS42IDMyIDQwIDMyIHogTSAxOSAzNSBDIDE4LjQ1IDM1IDE4IDM1LjQ1IDE4IDM2IEMgMTggMzYuNTUgMTguNDUgMzcgMTkgMzcgTCAyOC4zODA4NTkgMzcgQyAyOC41NTA4NTkgMzYuMzEgMjguNzkwMDc4IDM1LjY0IDI5LjA4MDA3OCAzNSBMIDE5IDM1IHogTSA0NC4zMDA3ODEgMzUuNDAwMzkxIEwgMzguOTAwMzkxIDQxLjY5OTIxOSBMIDM1LjU5OTYwOSAzOS4xOTkyMTkgTCAzNC40MDAzOTEgNDAuODAwNzgxIEwgMzkuMDk5NjA5IDQ0LjQwMDM5MSBMIDQ1LjgwMDc4MSAzNi42OTkyMTkgTCA0NC4zMDA3ODEgMzUuNDAwMzkxIHogTSAxOSA0MCBDIDE4LjQ1IDQwIDE4IDQwLjQ1IDE4IDQxIEMgMTggNDEuNTUgMTguNDUgNDIgMTkgNDIgTCAyOC4xNjk5MjIgNDIgQyAyOC4wNTk5MjIgNDEuMzUgMjggNDAuNjggMjggNDAgTCAxOSA0MCB6Ii8+PC9zdmc+;" vertex="1" parent="1">
          <mxGeometry x="470" y="240" width="40" height="40" as="geometry" />
        </mxCell>
        <mxCell id="14M7ILRCnpGqh378__P8-5" value="" style="endArrow=classic;html=1;rounded=0;exitX=-0.033;exitY=0.142;exitDx=0;exitDy=0;entryX=1.046;entryY=0.062;entryDx=0;entryDy=0;exitPerimeter=0;entryPerimeter=0;strokeWidth=2;" edge="1" parent="1">
          <mxGeometry width="50" height="50" relative="1" as="geometry">
            <mxPoint x="578" y="400" as="sourcePoint" />
            <mxPoint x="320" y="401" as="targetPoint" />
          </mxGeometry>
        </mxCell>
        <mxCell id="14M7ILRCnpGqh378__P8-6" value="JWT Key" style="points=[[0,0.5,0],[0.24,0,0],[0.5,0.28,0],[0.995,0.475,0],[0.5,0.72,0],[0.24,1,0]];verticalLabelPosition=bottom;sketch=0;html=1;verticalAlign=top;aspect=fixed;align=center;pointerEvents=1;shape=mxgraph.cisco19.key;fillColor=#005073;strokeColor=none;fontStyle=1;fontSize=13;" vertex="1" parent="1">
          <mxGeometry x="389.99999999999994" y="371.5" width="50" height="22.5" as="geometry" />
        </mxCell>
        <mxCell id="14M7ILRCnpGqh378__P8-7" value="" style="ellipse;whiteSpace=wrap;html=1;fillColor=#000000;" vertex="1" parent="1">
          <mxGeometry x="445" y="422.75" width="12" height="12" as="geometry" />
        </mxCell>
        <mxCell id="14M7ILRCnpGqh378__P8-8" value="" style="ellipse;whiteSpace=wrap;html=1;fillColor=#000000;" vertex="1" parent="1">
          <mxGeometry x="445" y="443.75" width="12" height="12" as="geometry" />
        </mxCell>
        <mxCell id="14M7ILRCnpGqh378__P8-9" value="" style="ellipse;whiteSpace=wrap;html=1;fillColor=#000000;" vertex="1" parent="1">
          <mxGeometry x="445" y="462.75" width="12" height="12" as="geometry" />
        </mxCell>
      </root>
    </mxGraphModel>
  </diagram>
</mxfile>
